<svg xmlns="http://www.w3.org/2000/svg" xmlns:xlink="http://www.w3.org/1999/xlink" width="217.069" height="197.46" viewBox="0 0 217.069 197.46">
  <defs>
    <linearGradient id="linear-gradient" y1="0.5" x2="1" y2="0.5" gradientUnits="objectBoundingBox">
      <stop offset="0" stop-color="#ccfffc"/>
      <stop offset="1" stop-color="#61e8e1"/>
      <stop offset="1" stop-color="#fc51ab"/>
    </linearGradient>
    <filter id="Path_22" x="6.929" y="9.868" width="196.948" height="185.327" filterUnits="userSpaceOnUse">
      <feOffset dx="5" dy="5" input="SourceAlpha"/>
      <feGaussianBlur stdDeviation="1.5" result="blur"/>
      <feFlood flood-color="#61e8e1" flood-opacity="0.2"/>
      <feComposite operator="in" in2="blur"/>
      <feComposite in="SourceGraphic"/>
    </filter>
    <linearGradient id="linear-gradient-2" y1="0.5" x2="1" y2="0.5" gradientUnits="objectBoundingBox">
      <stop offset="0" stop-color="#61e8e1"/>
      <stop offset="1" stop-color="#1fa7a0"/>
    </linearGradient>
    <filter id="Path_23" x="38.775" y="9.031" width="177.276" height="184.388" filterUnits="userSpaceOnUse">
      <feOffset dx="5" dy="5" input="SourceAlpha"/>
      <feGaussianBlur stdDeviation="1.5" result="blur-2"/>
      <feFlood flood-color="#71fff8" flood-opacity="0.2"/>
      <feComposite operator="in" in2="blur-2"/>
      <feComposite in="SourceGraphic"/>
    </filter>
  </defs>
  <g id="Group_20" data-name="Group 20" transform="translate(-258.927 -247.07)">
    <circle id="Ellipse_5" data-name="Ellipse 5" cx="38.941" cy="38.941" r="38.941" transform="translate(258.927 299.1)" fill="#d5fffd"/>
    <g transform="matrix(1, 0, 0, 1, 258.93, 247.07)" filter="url(#Path_22)">
      <path id="Path_22-2" data-name="Path 22" d="M406.5,276.914c-27.864-42.559-121.747-12.653-108.8,47.666,9.706,45.2-48.705,49-26.955,90,10.347,19.505,36.719,23.149,54.75,11.75,21.924-13.86,24.235-34.72,38.068-37.069,24.929-4.234,31.645,21.305,52.682,20.569,35.75-1.25,43.111-37.273,32.75-63.39-4.435-11.177-51.736-10.656-57.834-26.86C387.921,310.965,419.6,296.92,406.5,276.914Z" transform="translate(-258.93 -247.07)" fill="url(#linear-gradient)"/>
    </g>
    <g transform="matrix(1, 0, 0, 1, 258.93, 247.07)" filter="url(#Path_23)">
      <path id="Path_23-2" data-name="Path 23" d="M311.1,328.755c6.039,16.566-28.476,42.125-5.276,77.587C331.87,446.157,387.33,435.58,404,390.08c4.222-11.526,17.914-13.12,31.9-13.586,27.428-.914,34.367-28.034,26.6-41.08-18.667-31.334-71.592-18.352-84.646-34.863-10.581-13.383-27.875-52.911-56.6-42.821C285.456,270.3,304.571,310.855,311.1,328.755Z" transform="translate(-258.93 -247.07)" fill="url(#linear-gradient-2)"/>
    </g>
    <path id="Path_24" data-name="Path 24" d="M333,441.33s1.1.291,3.04.683,4.737.852,8.107,1.215c1.686.172,3.515.326,5.454.4s3.983.081,6.1.021,4.29-.23,6.489-.5c1.1-.133,2.2-.324,3.306-.5,1.094-.239,2.209-.406,3.292-.7,1.094-.259,2.186-.522,3.253-.862,1.08-.3,2.128-.674,3.168-1.051a50.216,50.216,0,0,0,5.926-2.639l2.691-1.541,2.483-1.634c.779-.57,1.517-1.154,2.243-1.7s1.351-1.173,1.993-1.722a24.116,24.116,0,0,0,1.749-1.679c.537-.552,1.078-1.05,1.531-1.567.887-1.05,1.709-1.933,2.3-2.723L398,422.33l-1.72,2.606c-.558.822-1.337,1.747-2.179,2.851-.431.543-.95,1.07-1.465,1.655a21.418,21.418,0,0,1-1.711,1.757c-.633.575-1.252,1.221-1.967,1.8s-1.45,1.2-2.224,1.8l-2.475,1.737c-.881.537-1.785,1.083-2.717,1.612a51.2,51.2,0,0,1-6.01,2.748c-1.055.4-2.119.792-3.216,1.1-1.083.356-2.191.638-3.3.908-1.106.293-2.241.452-3.355.683-1.125.17-2.244.352-3.361.476-2.234.251-4.441.4-6.579.44-2.138.057-4.2-.024-6.156-.162s-3.792-.34-5.483-.565a74.271,74.271,0,0,1-8.082-1.583C334.069,441.706,333,441.33,333,441.33Z" fill="#61e8e1"/>
    <path id="Path_25" data-name="Path 25" d="M296,263.58a20.245,20.245,0,0,1,1.158-1.684,38,38,0,0,1,3.54-4.078c.788-.795,1.686-1.614,2.664-2.448a34.79,34.79,0,0,1,3.226-2.443,37.459,37.459,0,0,1,3.733-2.205,35.677,35.677,0,0,1,4.1-1.812,33.623,33.623,0,0,1,4.327-1.189,30.829,30.829,0,0,1,4.306-.576,17.888,17.888,0,0,1,2.073-.064c.678.011,1.34.013,1.982.083,1.288.074,2.49.275,3.6.441,1.1.237,2.108.424,2.974.7s1.637.459,2.241.708l1.909.73-1.966-.544c-.616-.2-1.4-.325-2.272-.532s-1.888-.315-2.973-.509c-1.1-.114-2.284-.256-3.547-.269-.629-.041-1.277-.012-1.937.008s-1.334.046-2.018.109a29.716,29.716,0,0,0-4.176.625,33.108,33.108,0,0,0-4.185,1.215,34.553,34.553,0,0,0-4.016,1.7,36.691,36.691,0,0,0-3.679,2.1,45.593,45.593,0,0,0-5.98,4.574,47.985,47.985,0,0,0-3.776,3.794C296.446,262.988,296,263.58,296,263.58Z" fill="#61e8e1"/>
    <path id="Path_26" data-name="Path 26" d="M470.589,330.914s.35.637.961,1.752c.3.562.674,1.236,1.072,2.026.344.819.734,1.746,1.137,2.77q.154.384.313.783c.081.274.162.553.245.836l.513,1.761c.089.3.178.609.268.92s.126.638.191.963c.115.652.233,1.319.352,2a16.7,16.7,0,0,1,.216,2.085c.044.707.121,1.423.139,2.146a37.132,37.132,0,0,1-.225,4.384c-.111.728-.162,1.466-.327,2.182l-.489,2.133c-.15.71-.427,1.379-.631,2.059l-.329,1.005c-.122.328-.271.644-.4.963-.284.629-.514,1.27-.829,1.855l-.951,1.7c-.294.559-.688,1.04-1.01,1.538a12.127,12.127,0,0,1-1.027,1.376l-1.018,1.208-1.039.978-.472.443-.483.363-.852.632a11.641,11.641,0,0,1-1.287.733l-.461.244.435-.291c.274-.2.714-.44,1.2-.844l.788-.685.444-.39.429-.472.938-1.03.933-1.232a11.706,11.706,0,0,0,.937-1.39c.291-.5.652-.982.913-1.543l.846-1.694c.269-.586.5-1.2.762-1.822.124-.312.264-.62.378-.941s.2-.653.3-.983c.187-.664.448-1.316.582-2.009s.294-1.382.442-2.079.184-1.415.286-2.122a36.087,36.087,0,0,0,.286-4.257c-.007-.7-.072-1.4-.1-2.091a16.016,16.016,0,0,0-.178-2.037q-.151-1-.3-1.959c-.048-.32-.079-.64-.141-.951l-.22-.912q-.217-.9-.422-1.751c-.069-.283-.136-.562-.2-.835-.092-.264-.182-.524-.27-.778-.359-1.016-.667-1.958-.943-2.8-.335-.818-.661-1.519-.912-2.1Z" fill="#61e8e1"/>
  </g>
</svg>
